ffmpeg started on 2025-04-07 at 14:18:17
Report written to "D:\Convert\FFMetrics\reports\psnr_report-3.txt"
Log level: 32
Command line:
ffmpeg -hide_banner -nostdin -r 24000/1001 -i "E:\\Convert\\files\\02\\Nanatsu_no_Maken_ga_Shihai_suru_[02]_[AniLibria_TV]_[WEBRip_1080p]_HEVC(6).mkv" -r 24000/1001 -i "E:\\Convert\\files\\02\\Nanatsu_no_Maken_ga_Shihai_suru_[02]_[AniLibria_TV]_[WEBRip_1080p].mkv" -lavfi "[0:v]settb=AVTB,setpts=PTS-STARTPTS[main];[1:v]settb=AVTB,setpts=PTS-STARTPTS[ref];[main][ref]psnr=eof_action=endall:stats_file='D\\:/Convert/FFMetrics/logs/psnr_logfile-3.txt'" -f null -
Input #0, matroska,webm, from 'E:\Convert\files\02\Nanatsu_no_Maken_ga_Shihai_suru_[02]_[AniLibria_TV]_[WEBRip_1080p]_HEVC(6).mkv':
  Metadata:
    ENCODER         : Lavf61.7.100
  Duration: 00:23:40.14, start: -0.021000, bitrate: 1087 kb/s
  Stream #0:0: Video: hevc (Main 10), yuv420p10le(tv, bt709, progressive), 1920x1080 [SAR 1:1 DAR 16:9], 23.98 fps, 23.98 tbr, 1k tbn (default)
      Metadata:
        title           : Original
        BPS             : 7971709
        NUMBER_OF_FRAMES: 34047
        NUMBER_OF_BYTES : 1415023222
        _STATISTICS_WRITING_APP: mkvmerge v77.0 ('Elemental') 64-bit
        _STATISTICS_WRITING_DATE_UTC: 2023-07-15 11:47:58
        _STATISTICS_TAGS: BPS DURATION NUMBER_OF_FRAMES NUMBER_OF_BYTES
        ENCODER         : Lavc61.19.100 libx265
        DURATION        : 00:23:40.044000000
  Stream #0:1(rus): Audio: aac (LC), 48000 Hz, stereo, fltp (default)
      Metadata:
        title           : AniLibria.TV
        BPS             : 191999
        NUMBER_OF_FRAMES: 66568
        NUMBER_OF_BYTES : 34082731
        _STATISTICS_WRITING_APP: mkvmerge v77.0 ('Elemental') 64-bit
        _STATISTICS_WRITING_DATE_UTC: 2023-07-15 11:47:58
        _STATISTICS_TAGS: BPS DURATION NUMBER_OF_FRAMES NUMBER_OF_BYTES
        ENCODER         : Lavc61.19.100 aac
        DURATION        : 00:23:40.138000000
Input #1, matroska,webm, from 'E:\Convert\files\02\Nanatsu_no_Maken_ga_Shihai_suru_[02]_[AniLibria_TV]_[WEBRip_1080p].mkv':
  Metadata:
    encoder         : libebml v1.4.4 + libmatroska v1.7.1
    creation_time   : 2023-07-15T11:47:58.000000Z
  Duration: 00:23:40.12, start: 0.000000, bitrate: 8335 kb/s
  Stream #1:0: Video: h264 (High), yuv420p(tv, bt709, progressive), 1920x1080 [SAR 1:1 DAR 16:9], 23.98 fps, 23.98 tbr, 1k tbn (default)
      Metadata:
        title           : Original
        BPS             : 7971709
        DURATION        : 00:23:40.045000000
        NUMBER_OF_FRAMES: 34047
        NUMBER_OF_BYTES : 1415023222
        _STATISTICS_WRITING_APP: mkvmerge v77.0 ('Elemental') 64-bit
        _STATISTICS_WRITING_DATE_UTC: 2023-07-15 11:47:58
        _STATISTICS_TAGS: BPS DURATION NUMBER_OF_FRAMES NUMBER_OF_BYTES
  Stream #1:1(rus): Audio: aac (LC), 48000 Hz, stereo, fltp (default)
      Metadata:
        title           : AniLibria.TV
        BPS             : 191999
        DURATION        : 00:23:40.117000000
        NUMBER_OF_FRAMES: 66568
        NUMBER_OF_BYTES : 34082731
        _STATISTICS_WRITING_APP: mkvmerge v77.0 ('Elemental') 64-bit
        _STATISTICS_WRITING_DATE_UTC: 2023-07-15 11:47:58
        _STATISTICS_TAGS: BPS DURATION NUMBER_OF_FRAMES NUMBER_OF_BYTES
  Stream #1:2(jpn): Audio: aac (LC), 44100 Hz, stereo, fltp
      Metadata:
        title           : Original
        BPS             : 128000
        DURATION        : 00:23:40.109000000
        NUMBER_OF_FRAMES: 61159
        NUMBER_OF_BYTES : 22721748
        _STATISTICS_WRITING_APP: mkvmerge v77.0 ('Elemental') 64-bit
        _STATISTICS_WRITING_DATE_UTC: 2023-07-15 11:47:58
        _STATISTICS_TAGS: BPS DURATION NUMBER_OF_FRAMES NUMBER_OF_BYTES
  Stream #1:3(rus): Subtitle: ass (ssa) (default)
      Metadata:
        title           : Надписи
        BPS             : 340
        DURATION        : 00:22:14.570000000
        NUMBER_OF_FRAMES: 381
        NUMBER_OF_BYTES : 56799
        _STATISTICS_WRITING_APP: mkvmerge v77.0 ('Elemental') 64-bit
        _STATISTICS_WRITING_DATE_UTC: 2023-07-15 11:47:58
        _STATISTICS_TAGS: BPS DURATION NUMBER_OF_FRAMES NUMBER_OF_BYTES
  Stream #1:4(rus): Subtitle: ass (ssa)
      Metadata:
        title           : Субтитры
        BPS             : 489
        DURATION        : 00:23:37.340000000
        NUMBER_OF_FRAMES: 749
        NUMBER_OF_BYTES : 86800
        _STATISTICS_WRITING_APP: mkvmerge v77.0 ('Elemental') 64-bit
        _STATISTICS_WRITING_DATE_UTC: 2023-07-15 11:47:58
        _STATISTICS_TAGS: BPS DURATION NUMBER_OF_FRAMES NUMBER_OF_BYTES
  Stream #1:5: Attachment: ttf
      Metadata:
        filename        : AGPMOD.TTF
        mimetype        : application/x-truetype-font
  Stream #1:6: Attachment: ttf
      Metadata:
        filename        : DFPSNGyosho-W5-CP-Spec.ttf
        mimetype        : application/x-truetype-font
  Stream #1:7: Attachment: ttf
      Metadata:
        filename        : Modernist One.ttf
        mimetype        : application/x-truetype-font
  Stream #1:8: Attachment: ttf
      Metadata:
        filename        : 1125177.TTF
        mimetype        : application/x-truetype-font
  Stream #1:9: Attachment: ttf
      Metadata:
        filename        : Roboto-Medium.ttf
        mimetype        : application/x-truetype-font
  Stream #1:10: Attachment: ttf
      Metadata:
        filename        : Roboto-MediumItalic.ttf
        mimetype        : application/x-truetype-font
  Stream #1:11: Attachment: ttf
      Metadata:
        filename        : arial.ttf
        mimetype        : application/x-truetype-font
  Stream #1:12: Attachment: ttf
      Metadata:
        filename        : arialbd.ttf
        mimetype        : application/x-truetype-font
  Stream #1:13: Attachment: ttf
      Metadata:
        filename        : comic.ttf
        mimetype        : application/x-truetype-font
  Stream #1:14: Attachment: ttf
      Metadata:
        filename        : comicbd.ttf
        mimetype        : application/x-truetype-font
  Stream #1:15: Attachment: ttf
      Metadata:
        filename        : times.ttf
        mimetype        : application/x-truetype-font
  Stream #1:16: Attachment: ttf
      Metadata:
        filename        : timesbd.ttf
        mimetype        : application/x-truetype-font
  Stream #1:17: Attachment: ttf
      Metadata:
        filename        : trebuc.ttf
        mimetype        : application/x-truetype-font
  Stream #1:18: Attachment: ttf
      Metadata:
        filename        : trebucbd.ttf
        mimetype        : application/x-truetype-font
  Stream #1:19: Attachment: ttf
      Metadata:
        filename        : verdana.ttf
        mimetype        : application/x-truetype-font
  Stream #1:20: Attachment: ttf
      Metadata:
        filename        : verdanab.ttf
        mimetype        : application/x-truetype-font
  Stream #1:21: Attachment: ttf
      Metadata:
        filename        : CONSOLA.TTF
        mimetype        : application/x-truetype-font
  Stream #1:22: Attachment: ttf
      Metadata:
        filename        : CONSOLAB.TTF
        mimetype        : application/x-truetype-font
Stream mapping:
  Stream #0:0 (hevc) -> settb:default
  Stream #1:0 (h264) -> settb:default
  psnr:default -> Stream #0:0 (wrapped_avframe)
  Stream #0:1 -> #0:1 (aac (native) -> pcm_s16le (native))
Output #0, null, to 'pipe:':
  Metadata:
    encoder         : Lavf61.7.100
  Stream #0:0: Video: wrapped_avframe, yuv420p10le(tv, bt709, progressive), 1920x1080 [SAR 1:1 DAR 16:9], q=2-31, 200 kb/s, 1000k tbn
      Metadata:
        encoder         : Lavc61.19.100 wrapped_avframe
  Stream #0:1(rus): Audio: pcm_s16le, 48000 Hz, stereo, s16, 1536 kb/s (default)
      Metadata:
        title           : AniLibria.TV
        BPS             : 191999
        NUMBER_OF_FRAMES: 66568
        NUMBER_OF_BYTES : 34082731
        _STATISTICS_WRITING_APP: mkvmerge v77.0 ('Elemental') 64-bit
        _STATISTICS_WRITING_DATE_UTC: 2023-07-15 11:47:58
        _STATISTICS_TAGS: BPS DURATION NUMBER_OF_FRAMES NUMBER_OF_BYTES
        DURATION        : 00:23:40.138000000
        encoder         : Lavc61.19.100 pcm_s16le
frame=  192 fps=0.0 q=-0.0 size=N/A time=00:00:07.96 bitrate=N/A speed=15.3x    frame=  440 fps=427 q=-0.0 size=N/A time=00:00:18.30 bitrate=N/A speed=17.8x    frame=  730 fps=470 q=-0.0 size=N/A time=00:00:30.40 bitrate=N/A speed=19.6x    frame= 1010 fps=490 q=-0.0 size=N/A time=00:00:42.08 bitrate=N/A speed=20.4x    frame= 1277 fps=494 q=-0.0 size=N/A time=00:00:53.21 bitrate=N/A speed=20.6x    frame= 1536 fps=497 q=-0.0 size=N/A time=00:01:04.02 bitrate=N/A speed=20.7x    frame= 1831 fps=506 q=-0.0 size=N/A time=00:01:16.32 bitrate=N/A speed=21.1x    frame= 2085 fps=506 q=-0.0 size=N/A time=00:01:26.92 bitrate=N/A speed=21.1x    frame= 2287 fps=492 q=-0.0 size=N/A time=00:01:35.34 bitrate=N/A speed=20.5x    frame= 2499 fps=485 q=-0.0 size=N/A time=00:01:44.18 bitrate=N/A speed=20.2x    frame= 2725 fps=480 q=-0.0 size=N/A time=00:01:53.61 bitrate=N/A speed=  20x    frame= 2934 fps=474 q=-0.0 size=N/A time=00:02:02.33 bitrate=N/A speed=19.8x    frame= 3110 fps=464 q=-0.0 size=N/A time=00:02:09.67 bitrate=N/A speed=19.3x    frame= 3308 fps=458 q=-0.0 size=N/A time=00:02:17.92 bitrate=N/A speed=19.1x    frame= 3503 fps=453 q=-0.0 size=N/A time=00:02:26.06 bitrate=N/A speed=18.9x    frame= 3716 fps=450 q=-0.0 size=N/A time=00:02:34.94 bitrate=N/A speed=18.8x    frame= 3942 fps=450 q=-0.0 size=N/A time=00:02:44.37 bitrate=N/A speed=18.8x    frame= 4161 fps=448 q=-0.0 size=N/A time=00:02:53.50 bitrate=N/A speed=18.7x    frame= 4408 fps=450 q=-0.0 size=N/A time=00:03:03.80 bitrate=N/A speed=18.8x    frame= 4686 fps=454 q=-0.0 size=N/A time=00:03:15.40 bitrate=N/A speed=  19x    frame= 4913 fps=454 q=-0.0 size=N/A time=00:03:24.87 bitrate=N/A speed=18.9x    frame= 5111 fps=450 q=-0.0 size=N/A time=00:03:33.12 bitrate=N/A speed=18.8x    frame= 5282 fps=445 q=-0.0 size=N/A time=00:03:40.26 bitrate=N/A speed=18.6x    frame= 5536 fps=448 q=-0.0 size=N/A time=00:03:50.85 bitrate=N/A speed=18.7x    frame= 5808 fps=451 q=-0.0 size=N/A time=00:04:02.20 bitrate=N/A speed=18.8x    frame= 6096 fps=454 q=-0.0 size=N/A time=00:04:14.21 bitrate=N/A speed=18.9x    frame= 6365 fps=457 q=-0.0 size=N/A time=00:04:25.43 bitrate=N/A speed=19.1x    frame= 6630 fps=459 q=-0.0 size=N/A time=00:04:36.48 bitrate=N/A speed=19.2x    frame= 6922 fps=463 q=-0.0 size=N/A time=00:04:48.66 bitrate=N/A speed=19.3x    frame= 7191 fps=465 q=-0.0 size=N/A time=00:04:59.88 bitrate=N/A speed=19.4x    frame= 7460 fps=467 q=-0.0 size=N/A time=00:05:11.10 bitrate=N/A speed=19.5x    frame= 7716 fps=468 q=-0.0 size=N/A time=00:05:21.82 bitrate=N/A speed=19.5x    frame= 8015 fps=471 q=-0.0 size=N/A time=00:05:34.25 bitrate=N/A speed=19.6x    frame= 8277 fps=472 q=-0.0 size=N/A time=00:05:45.17 bitrate=N/A speed=19.7x    frame= 8548 fps=474 q=-0.0 size=N/A time=00:05:56.48 bitrate=N/A speed=19.8x    frame= 8824 fps=475 q=-0.0 size=N/A time=00:06:07.99 bitrate=N/A speed=19.8x    frame= 9061 fps=475 q=-0.0 size=N/A time=00:06:17.87 bitrate=N/A speed=19.8x    frame= 9313 fps=475 q=-0.0 size=N/A time=00:06:28.38 bitrate=N/A speed=19.8x    frame= 9553 fps=475 q=-0.0 size=N/A time=00:06:38.39 bitrate=N/A speed=19.8x    frame= 9830 fps=477 q=-0.0 size=N/A time=00:06:49.95 bitrate=N/A speed=19.9x    frame=10047 fps=475 q=-0.0 size=N/A time=00:06:59.00 bitrate=N/A speed=19.8x    frame=10271 fps=474 q=-0.0 size=N/A time=00:07:08.34 bitrate=N/A speed=19.8x    frame=10465 fps=472 q=-0.0 size=N/A time=00:07:16.43 bitrate=N/A speed=19.7x    frame=10673 fps=470 q=-0.0 size=N/A time=00:07:25.11 bitrate=N/A speed=19.6x    frame=10856 fps=468 q=-0.0 size=N/A time=00:07:32.74 bitrate=N/A speed=19.5x    frame=11038 fps=465 q=-0.0 size=N/A time=00:07:40.33 bitrate=N/A speed=19.4x    frame=11254 fps=464 q=-0.0 size=N/A time=00:07:49.34 bitrate=N/A speed=19.4x    frame=11454 fps=463 q=-0.0 size=N/A time=00:07:57.68 bitrate=N/A speed=19.3x    frame=11662 fps=462 q=-0.0 size=N/A time=00:08:06.36 bitrate=N/A speed=19.2x    frame=11904 fps=462 q=-0.0 size=N/A time=00:08:16.45 bitrate=N/A speed=19.3x    frame=12183 fps=463 q=-0.0 size=N/A time=00:08:28.09 bitrate=N/A speed=19.3x    frame=12437 fps=464 q=-0.0 size=N/A time=00:08:38.68 bitrate=N/A speed=19.3x    frame=12623 fps=462 q=-0.0 size=N/A time=00:08:46.44 bitrate=N/A speed=19.3x    frame=12838 fps=461 q=-0.0 size=N/A time=00:08:55.40 bitrate=N/A speed=19.2x    frame=13114 fps=462 q=-0.0 size=N/A time=00:09:06.92 bitrate=N/A speed=19.3x    frame=13368 fps=463 q=-0.0 size=N/A time=00:09:17.51 bitrate=N/A speed=19.3x    frame=13640 fps=464 q=-0.0 size=N/A time=00:09:28.85 bitrate=N/A speed=19.4x    frame=13908 fps=465 q=-0.0 size=N/A time=00:09:40.03 bitrate=N/A speed=19.4x    frame=14177 fps=466 q=-0.0 size=N/A time=00:09:51.25 bitrate=N/A speed=19.4x    frame=14439 fps=467 q=-0.0 size=N/A time=00:10:02.18 bitrate=N/A speed=19.5x    frame=14696 fps=467 q=-0.0 size=N/A time=00:10:12.90 bitrate=N/A speed=19.5x    frame=14973 fps=468 q=-0.0 size=N/A time=00:10:24.45 bitrate=N/A speed=19.5x    frame=15262 fps=470 q=-0.0 size=N/A time=00:10:36.51 bitrate=N/A speed=19.6x    frame=15511 fps=470 q=-0.0 size=N/A time=00:10:46.89 bitrate=N/A speed=19.6x    frame=15744 fps=470 q=-0.0 size=N/A time=00:10:56.61 bitrate=N/A speed=19.6x    frame=16003 fps=470 q=-0.0 size=N/A time=00:11:07.41 bitrate=N/A speed=19.6x    frame=16259 fps=471 q=-0.0 size=N/A time=00:11:18.09 bitrate=N/A speed=19.6x    frame=16445 fps=469 q=-0.0 size=N/A time=00:11:25.85 bitrate=N/A speed=19.6x    frame=16686 fps=469 q=-0.0 size=N/A time=00:11:35.90 bitrate=N/A speed=19.6x    frame=16892 fps=468 q=-0.0 size=N/A time=00:11:44.49 bitrate=N/A speed=19.5x    frame=17086 fps=467 q=-0.0 size=N/A time=00:11:52.58 bitrate=N/A speed=19.5x    frame=17305 fps=466 q=-0.0 size=N/A time=00:12:01.72 bitrate=N/A speed=19.4x    frame=17535 fps=466 q=-0.0 size=N/A time=00:12:11.31 bitrate=N/A speed=19.4x    frame=17778 fps=466 q=-0.0 size=N/A time=00:12:21.44 bitrate=N/A speed=19.4x    frame=18007 fps=466 q=-0.0 size=N/A time=00:12:31.00 bitrate=N/A speed=19.4x    frame=18240 fps=465 q=-0.0 size=N/A time=00:12:40.71 bitrate=N/A speed=19.4x    frame=18485 fps=466 q=-0.0 size=N/A time=00:12:50.93 bitrate=N/A speed=19.4x    frame=18724 fps=465 q=-0.0 size=N/A time=00:13:00.90 bitrate=N/A speed=19.4x    frame=18946 fps=465 q=-0.0 size=N/A time=00:13:10.16 bitrate=N/A speed=19.4x    frame=19185 fps=465 q=-0.0 size=N/A time=00:13:20.13 bitrate=N/A speed=19.4x    frame=19463 fps=466 q=-0.0 size=N/A time=00:13:31.72 bitrate=N/A speed=19.4x    frame=19719 fps=466 q=-0.0 size=N/A time=00:13:42.40 bitrate=N/A speed=19.5x    frame=20012 fps=468 q=-0.0 size=N/A time=00:13:54.62 bitrate=N/A speed=19.5x    frame=20274 fps=468 q=-0.0 size=N/A time=00:14:05.55 bitrate=N/A speed=19.5x    frame=20542 fps=468 q=-0.0 size=N/A time=00:14:16.73 bitrate=N/A speed=19.5x    frame=20805 fps=469 q=-0.0 size=N/A time=00:14:27.70 bitrate=N/A speed=19.6x    frame=21091 fps=470 q=-0.0 size=N/A time=00:14:39.62 bitrate=N/A speed=19.6x    frame=21354 fps=470 q=-0.0 size=N/A time=00:14:50.59 bitrate=N/A speed=19.6x    frame=21611 fps=471 q=-0.0 size=N/A time=00:15:01.31 bitrate=N/A speed=19.6x    frame=21867 fps=471 q=-0.0 size=N/A time=00:15:11.99 bitrate=N/A speed=19.6x    frame=22073 fps=470 q=-0.0 size=N/A time=00:15:20.58 bitrate=N/A speed=19.6x    frame=22330 fps=471 q=-0.0 size=N/A time=00:15:31.30 bitrate=N/A speed=19.6x    frame=22650 fps=472 q=-0.0 size=N/A time=00:15:44.65 bitrate=N/A speed=19.7x    frame=22929 fps=473 q=-0.0 size=N/A time=00:15:56.28 bitrate=N/A speed=19.7x    frame=23206 fps=474 q=-0.0 size=N/A time=00:16:07.84 bitrate=N/A speed=19.8x    frame=23494 fps=474 q=-0.0 size=N/A time=00:16:19.85 bitrate=N/A speed=19.8x    frame=23771 fps=475 q=-0.0 size=N/A time=00:16:31.40 bitrate=N/A speed=19.8x    frame=24090 fps=476 q=-0.0 size=N/A time=00:16:44.71 bitrate=N/A speed=19.9x    frame=24384 fps=477 q=-0.0 size=N/A time=00:16:56.97 bitrate=N/A speed=19.9x    frame=24655 fps=478 q=-0.0 size=N/A time=00:17:08.27 bitrate=N/A speed=19.9x    frame=24888 fps=478 q=-0.0 size=N/A time=00:17:17.99 bitrate=N/A speed=19.9x    frame=25177 fps=479 q=-0.0 size=N/A time=00:17:30.04 bitrate=N/A speed=  20x    frame=25464 fps=479 q=-0.0 size=N/A time=00:17:42.01 bitrate=N/A speed=  20x    frame=25706 fps=479 q=-0.0 size=N/A time=00:17:52.11 bitrate=N/A speed=  20x    frame=25946 fps=479 q=-0.0 size=N/A time=00:18:02.12 bitrate=N/A speed=  20x    frame=26239 fps=480 q=-0.0 size=N/A time=00:18:14.34 bitrate=N/A speed=  20x    frame=26488 fps=480 q=-0.0 size=N/A time=00:18:24.72 bitrate=N/A speed=  20x    frame=26764 fps=480 q=-0.0 size=N/A time=00:18:36.24 bitrate=N/A speed=  20x    frame=26998 fps=480 q=-0.0 size=N/A time=00:18:45.99 bitrate=N/A speed=  20x    frame=27277 fps=481 q=-0.0 size=N/A time=00:18:57.63 bitrate=N/A speed=20.1x    frame=27572 fps=482 q=-0.0 size=N/A time=00:19:09.94 bitrate=N/A speed=20.1x    frame=27845 fps=482 q=-0.0 size=N/A time=00:19:21.32 bitrate=N/A speed=20.1x    frame=28122 fps=482 q=-0.0 size=N/A time=00:19:32.88 bitrate=N/A speed=20.1x    frame=28420 fps=483 q=-0.0 size=N/A time=00:19:45.30 bitrate=N/A speed=20.2x    frame=28702 fps=484 q=-0.0 size=N/A time=00:19:57.07 bitrate=N/A speed=20.2x    frame=28983 fps=484 q=-0.0 size=N/A time=00:20:08.79 bitrate=N/A speed=20.2x    frame=29262 fps=485 q=-0.0 size=N/A time=00:20:20.42 bitrate=N/A speed=20.2x    frame=29536 fps=485 q=-0.0 size=N/A time=00:20:31.85 bitrate=N/A speed=20.2x    frame=29841 fps=486 q=-0.0 size=N/A time=00:20:44.57 bitrate=N/A speed=20.3x    frame=30108 fps=486 q=-0.0 size=N/A time=00:20:55.71 bitrate=N/A speed=20.3x    frame=30381 fps=487 q=-0.0 size=N/A time=00:21:07.09 bitrate=N/A speed=20.3x    frame=30643 fps=487 q=-0.0 size=N/A time=00:21:18.02 bitrate=N/A speed=20.3x    frame=30904 fps=487 q=-0.0 size=N/A time=00:21:28.91 bitrate=N/A speed=20.3x    frame=31196 fps=488 q=-0.0 size=N/A time=00:21:41.09 bitrate=N/A speed=20.3x    frame=31464 fps=488 q=-0.0 size=N/A time=00:21:52.26 bitrate=N/A speed=20.4x    frame=31728 fps=488 q=-0.0 size=N/A time=00:22:03.28 bitrate=N/A speed=20.4x    frame=32007 fps=489 q=-0.0 size=N/A time=00:22:14.91 bitrate=N/A speed=20.4x    frame=32299 fps=489 q=-0.0 size=N/A time=00:22:27.09 bitrate=N/A speed=20.4x    frame=32570 fps=490 q=-0.0 size=N/A time=00:22:38.39 bitrate=N/A speed=20.4x    frame=32855 fps=490 q=-0.0 size=N/A time=00:22:50.28 bitrate=N/A speed=20.4x    frame=33133 fps=490 q=-0.0 size=N/A time=00:23:01.88 bitrate=N/A speed=20.5x    frame=33404 fps=491 q=-0.0 size=N/A time=00:23:13.18 bitrate=N/A speed=20.5x    frame=33668 fps=491 q=-0.0 size=N/A time=00:23:24.19 bitrate=N/A speed=20.5x    frame=33947 fps=491 q=-0.0 size=N/A time=00:23:35.83 bitrate=N/A speed=20.5x    [Parsed_psnr_4 @ 000001f2c404e080] PSNR y:48.490586 u:48.495495 v:48.340342 average:48.465994 min:39.471069 max:76.830322
[out#0/null @ 000001f2c375ef00] video:14630KiB audio:266276KiB subtitle:0KiB other streams:0KiB global headers:0KiB muxing overhead: unknown
frame=34047 fps=491 q=-0.0 Lsize=N/A time=00:23:40.00 bitrate=N/A speed=20.5x    
